<?xml version="1.0" encoding="utf-8"?>
<!-- Generator: Adobe Illustrator 15.1.0, SVG Export Plug-In . SVG Version: 6.00 Build 0)  -->
<!DOCTYPE svg PUBLIC "-//W3C//DTD SVG 1.1//EN" "http://www.w3.org/Graphics/SVG/1.1/DTD/svg11.dtd">
<svg version="1.1" id="Layer_1" xmlns="http://www.w3.org/2000/svg" xmlns:xlink="http://www.w3.org/1999/xlink" x="0px" y="0px"
	 width="81px" height="81px" viewBox="0 0 81 81" enable-background="new 0 0 81 81" xml:space="preserve">
<g>
	<path fill-rule="evenodd" clip-rule="evenodd" fill="#6F2F6B" d="M29.219,37.47c0.201-0.135,0.435-0.378,0.664-0.812
		c0.466-0.858,0.801-2.444,0.792-4.388c0-1.029-0.084-1.977-0.25-2.763c-0.164-0.786-0.409-1.401-0.666-1.789
		c-0.171-0.261-0.332-0.422-0.49-0.53c-0.214-0.138-0.419-0.224-0.852-0.23c-0.274,0.006-0.409,0.059-0.628,0.206
		c-0.212,0.148-0.6,0.431-0.845,0.888C26.443,28.959,26,30.521,26,32.319v0.024v0.024l0.082,0.318
		c-0.001,1.305,0.245,2.44,0.562,3.267c0.316,0.836,0.732,1.318,1.056,1.522c0.223,0.14,0.431,0.201,0.73,0.206
		C28.803,37.675,29.013,37.602,29.219,37.47z"/>
	<path fill-rule="evenodd" clip-rule="evenodd" fill="#6F2F6B" d="M53.914,44.039c-0.173-0.266-0.331-0.43-0.491-0.54
		c-0.216-0.14-0.408-0.225-0.835-0.232c-0.273,0.007-0.39,0.06-0.607,0.206c-0.211,0.148-0.211,0.432-0.458,0.892
		C51.021,45.277,51,46.854,51,48.681v0.024v0.025l-0.342,0.321c-0.001,1.304-0.042,2.439,0.275,3.265
		c0.315,0.836,0.682,1.318,1.006,1.522c0.223,0.139,0.387,0.201,0.685,0.205c0.375-0.006,0.552-0.079,0.758-0.211
		c0.2-0.135,0.427-0.378,0.657-0.815c0.467-0.864,0.799-2.465,0.79-4.437c0-1.014-0.082-1.956-0.248-2.741
		C54.418,45.053,54.173,44.433,53.914,44.039z"/>
	<path fill-rule="evenodd" clip-rule="evenodd" fill="#6F2F6B" d="M40.5,0C18.132,0,0,18.133,0,40.5S18.132,81,40.5,81
		C62.867,81,81,62.867,81,40.5S62.867,0,40.5,0z M21.105,41.234C19.328,39.14,18,36.172,18,32.537v-0.007v-0.008
		c0-3.645,1.3-6.7,3.107-8.892c1.795-2.196,4.7-3.419,7.488-3.404c1.399-0.001,2.773,0.275,3.983,0.841
		c1.209,0.563,2.284,1.414,3.124,2.478c1.685,2.14,2.504,5.047,2.506,8.473c0.001,3.806-0.985,6.894-2.789,9.077
		c-1.793,2.188-4.563,3.335-7.233,3.32C25.58,44.427,22.873,43.333,21.105,41.234z M33.938,58.552L33.356,60h-7.493l21.681-39h7.49
		L33.938,58.552z M59.543,57.456c-1.793,2.187-4.438,3.334-7.106,3.319c-2.608,0.015-4.988-1.082-6.755-3.189
		C43.903,55.484,43,52.506,43,48.849v-0.008v-0.007c0-3.645,0.876-6.7,2.684-8.892c1.796-2.197,4.452-3.419,7.239-3.405
		c1.399-0.001,2.687,0.275,3.897,0.842c1.21,0.564,2.242,1.417,3.082,2.485c1.684,2.148,2.462,5.066,2.464,8.515
		C62.367,52.185,61.347,55.272,59.543,57.456z"/>
</g>
</svg>
