<?xml version="1.0" encoding="utf-8"?>
<svg version="1.1" id="Layer_1" xmlns="http://www.w3.org/2000/svg" xmlns:xlink="http://www.w3.org/1999/xlink" x="0px" y="0px"
	 viewBox="0 0 148.824 148.824" enable-background="new 0 0 148.824 148.824"
	 xml:space="preserve">
<g>
	<circle fill="#B2217B" cx="74.422" cy="19.014" r="18.582"/>
	<path fill="#842723" d="M132.183,35.256c0,10.263-8.319,18.581-18.583,18.581c-10.262,0-18.581-8.318-18.581-18.581
		c0-10.266,8.319-18.584,18.581-18.584C123.864,16.672,132.183,24.99,132.183,35.256z"/>
	<path fill="#C41C5E" d="M53.823,35.243c0,10.263-8.319,18.581-18.583,18.581c-10.262,0-18.581-8.318-18.581-18.581
		c0-10.266,8.319-18.584,18.581-18.584C45.504,16.659,53.823,24.977,53.823,35.243z"/>
	<path fill="#7F5CA3" d="M37.594,74.424c0,10.263-8.319,18.581-18.584,18.581c-10.262,0-18.58-8.318-18.58-18.581
		c0-10.266,8.318-18.584,18.58-18.584C29.275,55.84,37.594,64.158,37.594,74.424z"/>
	<circle fill="#702F6B" cx="35.279" cy="113.603" r="18.582"/>
	<circle fill="#006FA1" cx="74.422" cy="129.831" r="18.582"/>
	<circle fill="#2B877F" cx="113.6" cy="113.603" r="18.582"/>
	<path fill="#999999" d="M148.395,74.422c0,10.263-8.319,18.581-18.583,18.581c-10.264,0-18.582-8.318-18.582-18.581
		c0-10.266,8.318-18.584,18.582-18.584C140.076,55.838,148.395,64.156,148.395,74.422z"/>
</g>
</svg>
