<?xml version="1.0" encoding="utf-8"?>
<!-- Generator: Adobe Illustrator 15.1.0, SVG Export Plug-In . SVG Version: 6.00 Build 0)  -->
<!DOCTYPE svg PUBLIC "-//W3C//DTD SVG 1.1//EN" "http://www.w3.org/Graphics/SVG/1.1/DTD/svg11.dtd">
<svg version="1.1" id="Layer_1" xmlns="http://www.w3.org/2000/svg" xmlns:xlink="http://www.w3.org/1999/xlink" x="0px" y="0px"
	 width="81px" height="81px" viewBox="0 0 81 81" enable-background="new 0 0 81 81" xml:space="preserve">
<path fill-rule="evenodd" clip-rule="evenodd" fill="#6F2F6B" d="M40.5,0C18.132,0,0,18.132,0,40.5C0,62.868,18.132,81,40.5,81
	C62.867,81,81,62.868,81,40.5C81,18.132,62.867,0,40.5,0z M48,56H16v-2.166c0,0,0.435-2.776,3.01-4.056
	c1.494-0.741,5.823-2.846,9.096-4.486l1.092-3.091c-1.449-0.923-2.481-2.435-2.706-4.265l-0.623-5.181
	c-0.524-4.268,2.401-8.256,6.605-8.256c4.205,0,7.134,3.988,6.616,8.256l-0.626,5.181c-0.221,1.83-1.28,3.344-2.728,4.265
	l1.029,3.089c3.26,1.631,7.201,3.729,8.771,4.516C48.251,51.167,48,53.834,48,53.834V56z M58,52h-6v-0.166
	c0,0,0.251-2.667-2.462-4.028c-1.25-0.627-4.042-2.086-6.827-3.48c0.154-0.077,0.376-0.156,0.524-0.23l0.804-2.318
	c-1.087-0.692-1.869-1.827-2.037-3.199l-0.471-3.885c-0.395-3.201,1.798-6.192,4.952-6.192c3.152,0,5.35,2.991,4.962,6.192
	l-0.472,3.885c-0.166,1.372-0.96,2.507-2.044,3.199l0.771,2.316c2.443,1.223,5.337,2.795,6.514,3.387C58.25,48.5,58,50.5,58,50.5V52
	z M64,48h-1.5c0,0-0.002-1.752-2.035-2.77c-1.051-0.529-3.672-1.716-5.965-2.862l0.381-1.081c-0.725-0.461-1.256-1.185-1.369-2.1
	l-0.318-2.575c-0.264-2.134,1.195-4.12,3.299-4.12c2.102,0,3.562,1.998,3.305,4.132l-0.312,2.592
	c-0.111,0.915-0.643,1.673-1.365,2.132l0.514,1.546c1.629,0.813,3.477,1.864,4.261,2.257C64.25,45.833,64,47.166,64,47.166V48z"/>
</svg>
