<?xml version="1.0" encoding="utf-8"?>
<!-- Generator: Adobe Illustrator 15.1.0, SVG Export Plug-In . SVG Version: 6.00 Build 0)  -->
<!DOCTYPE svg PUBLIC "-//W3C//DTD SVG 1.1//EN" "http://www.w3.org/Graphics/SVG/1.1/DTD/svg11.dtd">
<svg version="1.1" id="Layer_1" xmlns="http://www.w3.org/2000/svg" xmlns:xlink="http://www.w3.org/1999/xlink" x="0px" y="0px"
	 width="81px" height="81px" viewBox="0 0 81 81" enable-background="new 0 0 81 81" xml:space="preserve">
<g>
	<path fill-rule="evenodd" clip-rule="evenodd" fill="#6F2F6B" d="M41,18c-3.314,0-6,2.686-6,6v9h12v-9C47,20.686,44.314,18,41,18z"
		/>
	<path fill-rule="evenodd" clip-rule="evenodd" fill="#6F2F6B" d="M44.417,44c0-2.207-1.788-3.997-3.995-4l-0.003-0.01L40.417,40
		c-2.209,0.001-4.001,1.792-4.001,4c0,1.53,0.87,3.332,2.131,4.004L36.43,57h7.978l-2.116-8.998
		C43.55,47.33,44.417,45.529,44.417,44z"/>
	<path fill-rule="evenodd" clip-rule="evenodd" fill="#6F2F6B" d="M40.5,0C18.133,0,0,18.132,0,40.5S18.133,81,40.5,81
		S81,62.868,81,40.5S62.867,0,40.5,0z M59,61c0,2.209-2.291,4-4.5,4h-28c-2.209,0-3.5-1.791-3.5-4V37c0-2.209,1.291-4,3.5-4H31v-9
		c0-5.523,4.477-10,10-10s10,4.477,10,10v9h3.5c2.209,0,4.5,1.791,4.5,4V61z"/>
</g>
</svg>
