<?xml version="1.0" encoding="utf-8"?>
<!-- Generator: Adobe Illustrator 15.1.0, SVG Export Plug-In . SVG Version: 6.00 Build 0)  -->
<!DOCTYPE svg PUBLIC "-//W3C//DTD SVG 1.1//EN" "http://www.w3.org/Graphics/SVG/1.1/DTD/svg11.dtd">
<svg version="1.1" id="Layer_1" xmlns="http://www.w3.org/2000/svg" xmlns:xlink="http://www.w3.org/1999/xlink" x="0px" y="0px"
	 width="713.172px" height="148.84px" viewBox="0 0 713.172 148.84" enable-background="new 0 0 713.172 148.84"
	 xml:space="preserve">
<g>
	<g>
		<path fill="#FFFFFF" d="M711.438,48.914h-4c-0.004,0-0.01,0.002-0.016,0.002c-0.516-0.004-1.035,0.189-1.43,0.584l-25.189,25.189
			L655.614,49.5c-0.396-0.395-0.912-0.588-1.432-0.584c-0.006,0-0.01-0.002-0.016-0.002h-4c-1.104,0-2,0.896-2,2v47.004
			c0,1.105,0.896,2,2,2h4c1.105,0,2-0.895,2-2v-36.55l22.963,22.963l0.021-0.004c0.395,0.42,0.949,0.688,1.572,0.688
			c0.619,0,1.176-0.263,1.568-0.679l0.021,0.006l22.857-22.975v36.55c0,1.105,1.162,2,2.268,2h4c1.105,0,1.734-0.895,1.734-2V50.914
			C713.174,49.811,712.545,48.914,711.438,48.914z"/>
		<path fill="#FFFFFF" d="M628.756,48.914h-34.512c-5.607,0-10.082,4.711-10.082,10.315v30.453c0,5.606,4.475,10.235,10.082,10.235
			h34.512c5.605,0,10.41-4.629,10.41-10.235V59.229C639.167,53.625,634.362,48.914,628.756,48.914z M631.167,89.684
			c0,1.121-1.289,2.234-2.41,2.234h-34.512c-1.121,0-2.08-1.113-2.08-2.234V59.229c0-1.119,0.959-2.315,2.08-2.315h34.512
			c1.121,0,2.41,1.196,2.41,2.315V89.684z"/>
		<path fill="#FFFFFF" d="M567.163,83.917v6.272c0,1.123-0.742,1.729-1.865,1.729h-34.512c-1.121,0-2.627-0.605-2.627-1.729V59.737
			c0-1.119,1.506-2.823,2.627-2.823h34.512c1.123,0,1.865,1.704,1.865,2.823v5.179h8v-5.179c0-5.604-4.258-10.823-9.865-10.823
			h-34.512c-5.605,0-10.627,5.219-10.627,10.823v30.453c0,5.606,5.02,9.729,10.627,9.729h34.512c5.607,0,9.865-4.121,9.865-9.729
			v-6.272H567.163z"/>
	</g>
	<g>
		<g>
			<path fill="#FFFFFF" d="M478.551,96.834l-28.264-46.916c-0.361-0.602-1.012-1.004-1.713-1.004H437.6
				c-0.707,0-1.355,0.406-1.719,1.016l-27.82,46.898c-0.367,0.621-0.375,1.42-0.02,2.045c0.357,0.627,1.018,1.045,1.738,1.045
				h11.418c0.721,0,1.381-0.23,1.738-0.855l5.299-9.146h28.705l5.301,9.146c0.355,0.625,1.016,0.855,1.736,0.855h12.859
				c0.721,0,1.387-0.414,1.742-1.041C478.934,98.248,478.924,97.453,478.551,96.834z M435.301,76.916l7.211-13.36l7.52,13.36
				H435.301z"/>
			<path fill="#FFFFFF" d="M395.93,48.914h-10.307c-0.525,0-1.279,0.25-1.652,0.623c-0.373,0.371-0.824,0.922-0.824,1.449v27.038
				l-36.314-28.648c-0.352-0.273-0.551-0.461-0.996-0.461h-7.867c-0.526,0-0.955,0.25-1.328,0.623
				c-0.371,0.371-0.498,0.922-0.498,1.449v46.881c0,0.527,0.128,1.068,0.498,1.439c0.373,0.373,0.802,0.61,1.328,0.61h10.418
				c0.527,0,0.922-0.237,1.293-0.61c0.373-0.371,0.465-0.912,0.465-1.439V70.43l36.55,29.027c0.354,0.283,0.914,0.461,1.365,0.461
				h7.869c0.527,0,1.152-0.238,1.523-0.611c0.373-0.371,0.695-0.912,0.695-1.438V50.986c0-0.527-0.322-1.078-0.695-1.449
				C397.083,49.164,396.458,48.914,395.93,48.914z"/>
			<path fill="#FFFFFF" d="M314.88,55.555c-2.644-2.234-5.855-3.92-9.571-5c-3.717-1.082-7.938-1.641-12.667-1.641h-31.586
				c-0.527,0-1.002,0.25-1.373,0.623c-0.373,0.371-0.545,0.922-0.545,1.449v46.881c0,0.527,0.172,1.068,0.545,1.439
				c0.371,0.373,0.846,0.61,1.373,0.61h28.703c5.298,0,9.984-0.526,14.068-1.562c3.062-0.775,5.791-1.867,8.164-3.271
				c3.562-2.102,6.318-4.97,8.127-8.491c1.811-3.52,2.678-7.661,2.676-12.329c0.002-3.908-0.637-7.463-1.957-10.61
				C319.52,60.505,317.511,57.777,314.88,55.555z M305.854,80.337c-0.769,1.729-1.845,3.017-3.331,3.994
				c-1.325,0.844-3.258,1.463-5.796,1.942c-2.548,0.486-5.692,0.644-9.406,0.644h-13.182V60.915h18.611
				c2.57,0,4.762,0.531,6.566,1.061c1.354,0.396,2.493,1.051,3.442,1.699c1.422,0.978,2.443,2.265,3.167,3.874
				c0.718,1.607,1.115,3.656,1.115,6.125C307.043,76.389,306.618,78.609,305.854,80.337z"/>
			<path fill="#FFFFFF" d="M230.539,81.917h0.702c1.965,0,3.737-0.09,5.327-0.521c1.191-0.326,2.281-0.73,3.248-1.347
				c1.45-0.919,2.564-2.179,3.295-3.718c0.735-1.539,1.024-3.266,1.024-5.174V60.075c0-1.713-0.219-3.3-0.791-4.724
				c-0.428-1.066-1.018-2.035-1.792-2.859c-1.164-1.24-2.666-2.166-4.4-2.725c-1.738-0.562-3.699-0.854-5.911-0.854h-42.224
				c-0.527,0-0.986,0.25-1.357,0.623c-0.373,0.371-0.529,0.922-0.529,1.449v46.881c0,0.526,0.156,1.067,0.529,1.438
				c0.371,0.373,0.83,0.611,1.357,0.611h11.303c0.527,0,0.949-0.238,1.32-0.611c0.373-0.371,0.492-0.912,0.492-1.438v-15.95h8.168
				l19.045,17.352c0.367,0.332,0.846,0.649,1.341,0.649h16.405c0.852,0,1.607-0.562,1.889-1.365
				c0.279-0.805,0.023-1.815-0.643-2.348L230.539,81.917z M229.213,69.088c-0.058,0.123-0.009,0.207-0.107,0.301
				c-0.146,0.135-0.35,0.236-0.822,0.369c-0.467,0.135-1.076,0.158-1.918,0.158h-24.232v-9.001h24.232
				c0.748,0,1.355,0.15,1.811,0.262c0.341,0.082,0.594,0.225,0.77,0.324c0.267,0.156,0.146,0.293,0.238,0.455
				c0.088,0.162-0.049,0.438-0.049,0.889v5.433C229.135,68.678,229.287,68.928,229.213,69.088z"/>
			<path fill="#FFFFFF" d="M150.83,49.918c-0.361-0.602-1.01-1.004-1.713-1.004h-10.971c-0.707,0-1.358,0.406-1.72,1.016
				l-27.819,46.898c-0.368,0.621-0.375,1.42-0.018,2.045c0.355,0.627,1.016,1.045,1.737,1.045h11.417
				c0.722,0,1.381-0.23,1.737-0.855l5.298-9.146h28.708l5.298,9.146c0.357,0.625,1.016,0.855,1.738,0.855h12.857
				c0.721,0,1.387-0.414,1.742-1.041c0.355-0.629,0.344-1.43-0.029-2.047L150.83,49.918z M135.846,76.916l7.213-13.362l7.518,13.362
				H135.846z"/>
			<path fill="#FFFFFF" d="M99.672,51.537l-0.001-0.002c-1.152-0.928-2.562-1.594-4.163-1.998c-1.606-0.402-3.42-0.623-5.461-0.623
				H47.82c-0.527,0-0.893,0.25-1.264,0.623c-0.373,0.371-0.437,0.922-0.437,1.449v46.881c0,0.527,0.063,1.068,0.437,1.439
				c0.371,0.373,0.736,0.61,1.264,0.61h11.304c0.526,0,1.04-0.237,1.413-0.61c0.372-0.371,0.584-0.912,0.584-1.439v-15.95h28.926
				c1.966,0,3.74-0.369,5.332-0.808c1.193-0.33,2.284-0.881,3.251-1.502c1.451-0.931,2.655-2.273,3.382-3.824
				c0.732-1.553,1.113-3.363,1.113-5.291V60.075c0-1.803-0.291-3.433-0.831-4.884C101.758,53.744,100.838,52.477,99.672,51.537z
				 M88.109,68.533c-0.059,0.123-0.055,0.207-0.154,0.301c-0.145,0.135-0.373,0.514-0.845,0.646
				c-0.468,0.135-1.101,0.436-1.941,0.436H61.121v-9.001h24.048c0.747,0,1.356,0.15,1.811,0.262
				c0.341,0.082,0.594,0.225,0.771,0.324c0.266,0.156,0.238,0.293,0.33,0.455c0.088,0.162,0.043,0.438,0.043,0.889v4.878
				C88.123,68.123,88.184,68.373,88.109,68.533z"/>
		</g>
	</g>
	<g>
		<circle fill="#FFFFFF" cx="74.429" cy="14.787" r="14.786"/>
		<path fill="#FFFFFF" d="M131.386,32.27c0,8.166-6.62,14.785-14.787,14.785c-8.166,0-14.785-6.619-14.785-14.785
			c0-8.168,6.619-14.787,14.785-14.787C124.766,17.483,131.386,24.102,131.386,32.27z"/>
		<path fill="#FFFFFF" d="M47.041,32.256c0,8.166-6.62,14.785-14.787,14.785c-8.166,0-14.785-6.619-14.785-14.785
			c0-8.168,6.619-14.787,14.785-14.787C40.421,17.469,47.041,24.088,47.041,32.256z"/>
		<path fill="#FFFFFF" d="M29.572,74.43c0,8.166-6.62,14.784-14.787,14.784C6.619,89.214,0,82.596,0,74.43
			c0-8.168,6.619-14.787,14.785-14.787C22.953,59.643,29.572,66.262,29.572,74.43z"/>
		<circle fill="#FFFFFF" cx="32.296" cy="116.603" r="14.786"/>
		<circle fill="#FFFFFF" cx="74.429" cy="134.069" r="14.786"/>
		<circle fill="#FFFFFF" cx="116.6" cy="116.603" r="14.786"/>
		<circle fill="#FFFFFF" cx="497.909" cy="85.119" r="14.786"/>
		<path display="none" fill="#FFFFFF" d="M148.836,74.428c0,8.166-6.619,14.784-14.785,14.784c-8.167,0-14.785-6.618-14.785-14.784
			c0-8.168,6.618-14.787,14.785-14.787C142.217,59.641,148.836,66.26,148.836,74.428z"/>
	</g>
</g>
</svg>
