<?xml version="1.0" encoding="utf-8"?>
<svg version="1.1" id="Layer_1" xmlns="http://www.w3.org/2000/svg" xmlns:xlink="http://www.w3.org/1999/xlink" x="0px" y="0px"
	 viewBox="0 0 799.995 166.99" enable-background="new 0 0 799.995 166.99"
	 xml:space="preserve">
<g>
	<g>
		<path fill="#999999" d="M798.117,54.512h-4.487c-0.005,0-0.012,0.182-0.019,0.182c-0.578-0.004-1.161,0.303-1.604,0.745
			l-28.26,28.304l-28.259-28.235c-0.443-0.443-1.023-0.828-1.604-0.824c-0.007,0-0.011-0.17-0.018-0.17h-4.488
			c-1.238,0-2.308,1.365-2.308,2.603v52.73c0,1.24,1.069,1.885,2.308,1.885h4.488c1.239,0,2.18-0.644,2.18-1.885V68.844
			l25.793,25.76l0.037-0.005c0.443,0.472,1.076,0.772,1.774,0.772c0.695,0,1.32-0.294,1.762-0.761l-0.007,0.007l25.614-25.774
			v41.002c0,1.24,1.367,1.885,2.604,1.885h4.488c1.239,0,1.882-0.644,1.882-1.885v-52.73C800,55.877,799.357,54.512,798.117,54.512z
			"/>
		<path fill="#999999" d="M705.361,54.512h-38.718c-6.289,0-11.373,5.644-11.373,11.932v34.164c0,6.288,5.083,11.122,11.373,11.122
			h38.718c6.288,0,11.616-4.834,11.616-11.122V66.444C716.978,60.158,711.65,54.512,705.361,54.512z M708.002,100.608
			c0,1.257-1.382,2.147-2.641,2.147h-38.718c-1.258,0-2.397-0.891-2.397-2.147V66.444c0-1.255,1.14-2.957,2.397-2.957h38.718
			c1.258,0,2.641,1.701,2.641,2.957V100.608z"/>
		<path fill="#999999" d="M636.199,93.78v7.396c0,1.259-0.771,1.579-2.027,1.579h-38.718c-1.258,0-3.012-0.32-3.012-1.579V67.014
			c0-1.255,1.753-3.526,3.012-3.526h38.718c1.257,0,2.027,2.27,2.027,3.526v5.449h8.975v-5.449c0-6.287-4.713-12.501-11.002-12.501
			h-38.718c-6.289,0-11.987,6.214-11.987,12.501v34.163c0,6.29,5.697,10.554,11.987,10.554h38.718
			c6.288,0,11.002-4.264,11.002-10.554V93.78H636.199z"/>
	</g>
	<g>
		<g>
			<path d="M536.855,108.63l-31.708-52.812c-0.405-0.675-1.136-1.306-1.922-1.306h-12.309c-0.793,0-1.522,0.635-1.929,1.319
				l-31.21,52.702c-0.414,0.697-0.42,1.459-0.022,2.16c0.4,0.703,1.143,1.038,1.95,1.038h12.808c0.81,0,1.55-0.259,1.95-0.96
				l5.945-10.26h32.202l5.947,10.26c0.398,0.701,1.141,0.96,1.948,0.96h14.425c0.809,0,1.556-0.285,1.954-0.989
				C537.285,110.038,537.273,109.325,536.855,108.63z M488.337,85.926l8.09-14.988l8.435,14.988H488.337z"/>
			<path d="M444.166,54.512h-11.562c-0.589,0-1.466,0.46-1.885,0.878c-0.418,0.416-0.958,1.214-0.958,1.805v30.331l-40.707-32.319
				c-0.395-0.306-0.584-0.697-1.085-0.697h-8.826c-0.59,0-1.103,0.46-1.521,0.878c-0.417,0.417-0.59,1.214-0.59,1.806v52.595
				c0,0.591,0.172,1.019,0.59,1.435c0.418,0.419,0.931,0.506,1.521,0.506h11.688c0.59,0,1.001-0.087,1.417-0.506
				c0.418-0.416,0.49-0.844,0.49-1.435V79.008l41.036,32.385c0.398,0.317,1.056,0.337,1.564,0.337h8.826
				c0.592,0,1.263-0.087,1.679-0.506c0.419-0.416,0.747-0.844,0.747-1.435V57.197c0-0.591-0.328-1.389-0.747-1.805
				C445.429,54.972,444.759,54.512,444.166,54.512z"/>
			<path d="M353.243,62.322c-2.965-2.506-6.57-4.578-10.737-5.789c-4.17-1.214-8.906-2.021-14.211-2.021H292.86
				c-0.59,0-1.156,0.46-1.572,0.878c-0.418,0.416-0.643,1.214-0.643,1.805v52.594c0,0.591,0.224,1.019,0.643,1.435
				c0.416,0.419,0.982,0.506,1.572,0.506h32.201c5.944,0,11.2-0.411,15.782-1.572c3.437-0.87,6.496-2.005,9.16-3.58
				c3.996-2.358,7.088-5.53,9.116-9.48c2.033-3.949,3.004-8.571,3.003-13.809c0.001-4.385-0.715-8.362-2.196-11.892
				C358.448,67.864,356.195,64.816,353.243,62.322z M343.119,90.124c-0.863,1.939-2.07,3.384-3.738,4.48
				c-1.485,0.947-3.654,1.462-6.502,2.001c-2.857,0.545-6.385,0.54-10.552,0.54h-14.852v-29.17h20.943
				c2.882,0,5.342,0.775,7.366,1.37c1.521,0.444,2.798,1.269,3.863,1.996c1.595,1.096,2.741,2.585,3.553,4.39
				c0.806,1.803,1.251,4.125,1.251,6.895C344.453,85.672,343.976,88.185,343.119,90.124z"/>
			<path d="M258.628,91.536h0.787c2.205,0,4.193,0.078,5.977-0.405c1.336-0.365,2.559-0.729,3.643-1.42
				c1.627-1.03,2.845-2.398,3.664-4.126c0.825-1.727,1.118-3.619,1.118-5.76V67.393c0-1.922-0.213-3.701-0.856-5.299
				c-0.48-1.196-1.125-2.283-1.994-3.208c-1.305-1.391-2.982-2.609-4.929-3.236c-1.951-0.631-4.142-1.138-6.624-1.138h-47.369
				c-0.59,0-1.138,0.46-1.554,0.878c-0.418,0.416-0.626,1.214-0.626,1.805v52.594c0,0.591,0.208,1.019,0.626,1.435
				c0.417,0.419,0.964,0.506,1.554,0.506h12.681c0.59,0,1.031-0.087,1.448-0.506c0.418-0.416,0.521-0.844,0.521-1.435V91.536h9.228
				l21.365,19.466c0.412,0.372,0.949,0.729,1.504,0.729h18.403c0.956,0,1.803-0.448,2.12-1.352c0.314-0.903,0.026-2.127-0.722-2.724
				L258.628,91.536z M257.107,77.504c-0.065,0.138,0.007,0.232-0.104,0.337c-0.164,0.151-0.385,0.085-0.914,0.234
				c-0.524,0.152-1.199-0.002-2.143-0.002h-27.25V67.976h27.25c0.838,0,1.521,0.349,2.031,0.474
				c0.383,0.092,0.667,0.342,0.864,0.453c0.3,0.175,0.132,0.374,0.234,0.556c0.099,0.182-0.086,0.536-0.086,1.042v6.094
				C256.987,77.042,257.19,77.323,257.107,77.504z"/>
			<path d="M169.207,55.818c-0.406-0.675-1.134-1.306-1.922-1.306h-12.307c-0.794,0-1.524,0.635-1.93,1.319l-31.209,52.702
				c-0.413,0.697-0.42,1.459-0.02,2.16c0.398,0.703,1.14,1.038,1.949,1.038h12.808c0.81,0,1.549-0.259,1.949-0.96l5.943-10.26
				h32.206l5.944,10.26c0.399,0.701,1.14,0.96,1.949,0.96h14.425c0.809,0,1.556-0.285,1.953-0.989
				c0.398-0.705,0.386-1.604-0.031-2.296L169.207,55.818z M152.397,85.926l8.091-14.99l8.434,14.99H152.397z"/>
			<path d="M111.817,57.815l-0.001-0.002c-1.292-1.042-2.874-1.968-4.672-2.421c-1.801-0.451-3.835-0.878-6.126-0.878H53.646
				c-0.591,0-1.032,0.46-1.45,0.878c-0.418,0.417-0.521,1.214-0.521,1.805v52.593c0,0.591,0.103,1.019,0.521,1.435
				c0.417,0.419,0.86,0.506,1.45,0.506h12.681c0.591,0,1.135-0.087,1.553-0.506c0.417-0.416,0.624-0.844,0.624-1.435V91.536h32.513
				c2.206,0,4.196-0.234,5.982-0.725c1.338-0.37,2.562-0.898,3.647-1.596c1.628-1.043,2.945-2.505,3.762-4.245
				c0.821-1.742,1.216-3.729,1.216-5.892V67.393c0-2.023-0.294-3.851-0.899-5.479C114.124,60.291,113.124,58.869,111.817,57.815z
				 M98.812,76.881c-0.065,0.138-0.046,0.232-0.156,0.338c-0.164,0.151-0.412,0.397-0.94,0.545
				c-0.525,0.151-1.226,0.309-2.169,0.309H68.504V67.975h27.042c0.839,0,1.521,0.349,2.032,0.474
				c0.383,0.092,0.667,0.342,0.865,0.453c0.298,0.175,0.234,0.374,0.338,0.555c0.097,0.182,0.017,0.537,0.017,1.042v5.472
				C98.796,76.421,98.896,76.702,98.812,76.881z"/>
		</g>
	</g>
	<g>
		<circle fill="#B2217B" cx="83.496" cy="16.588" r="16.588"/>
		<path fill="#842723" d="M147.393,36.2c0,9.161-7.426,16.586-16.589,16.586c-9.162,0-16.586-7.425-16.586-16.586
			c0-9.164,7.426-16.588,16.586-16.588C139.967,19.611,147.393,27.036,147.393,36.2z"/>
		<path fill="#C41C5E" d="M52.772,36.184c0,9.161-7.426,16.585-16.589,16.585c-9.162,0-16.586-7.425-16.586-16.585
			c0-9.164,7.426-16.589,16.586-16.589C45.346,19.595,52.772,27.021,52.772,36.184z"/>
		<path fill="#7F5CA3" d="M33.175,83.496c0,9.161-7.426,16.586-16.589,16.586C7.426,100.083,0,92.657,0,83.496
			c0-9.164,7.426-16.588,16.586-16.588C25.75,66.907,33.175,74.332,33.175,83.496z"/>
		<circle fill="#702F6B" cx="36.23" cy="130.805" r="16.588"/>
		<circle fill="#006FA1" cx="83.496" cy="150.402" r="16.588"/>
		<circle fill="#2B877F" cx="130.806" cy="130.805" r="16.588"/>
		<circle fill="#999999" cx="558.572" cy="95.488" r="16.588"/>
		<path display="none" d="M167.119,83.724c0,9.16-7.426,16.585-16.587,16.585s-16.586-7.425-16.586-16.585
			c0-9.165,7.425-16.589,16.586-16.589S167.119,74.56,167.119,83.724z"/>
	</g>
</g>
</svg>
