<?xml version="1.0" encoding="utf-8"?>
<!-- Generator: Adobe Illustrator 15.1.0, SVG Export Plug-In . SVG Version: 6.00 Build 0)  -->
<!DOCTYPE svg PUBLIC "-//W3C//DTD SVG 1.1//EN" "http://www.w3.org/Graphics/SVG/1.1/DTD/svg11.dtd">
<svg version="1.1" id="Layer_1" xmlns="http://www.w3.org/2000/svg" xmlns:xlink="http://www.w3.org/1999/xlink" x="0px" y="0px"
	 width="81px" height="81px" viewBox="0 0 81 81" enable-background="new 0 0 81 81" xml:space="preserve">
<g>
	<circle fill="#FFFFFF" cx="40.505" cy="8.048" r="8.047"/>
	<path fill="#FFFFFF" d="M71.503,17.562c0,4.444-3.603,8.046-8.048,8.046c-4.443,0-8.046-3.602-8.046-8.046
		c0-4.446,3.603-8.048,8.046-8.048C67.9,9.514,71.503,13.117,71.503,17.562z"/>
	<path fill="#FFFFFF" d="M25.601,17.555c0,4.444-3.603,8.046-8.047,8.046c-4.444,0-8.046-3.602-8.046-8.046
		c0-4.445,3.603-8.047,8.046-8.047C21.998,9.507,25.601,13.109,25.601,17.555z"/>
	<path fill="#FFFFFF" d="M16.093,40.506c0,4.445-3.603,8.046-8.047,8.046C3.602,48.553,0,44.951,0,40.506
		c0-4.445,3.602-8.047,8.046-8.047C12.491,32.459,16.093,36.061,16.093,40.506z"/>
	<circle fill="#FFFFFF" cx="17.576" cy="63.457" r="8.047"/>
	<circle fill="#FFFFFF" cx="40.505" cy="72.964" r="8.047"/>
	<circle fill="#FFFFFF" cx="63.456" cy="63.457" r="8.047"/>
	<path fill="#FFFFFF" d="M81,40.505c0,4.444-3.603,8.045-8.047,8.045c-4.445,0-8.047-3.602-8.047-8.045
		c0-4.445,3.602-8.047,8.047-8.047C77.397,32.458,81,36.06,81,40.505z"/>
	<path fill="#FFFFFF" d="M54.244,28.048l-0.002-0.001c-0.627-0.505-1.394-0.868-2.266-1.088c-0.873-0.219-1.86-0.339-2.971-0.339
		H26.025c-0.287,0-0.486,0.136-0.689,0.339c-0.202,0.202-0.238,0.502-0.238,0.789v25.514c0,0.287,0.035,0.581,0.238,0.783
		c0.203,0.203,0.401,0.332,0.689,0.332h6.152c0.286,0,0.566-0.129,0.768-0.332c0.203-0.202,0.318-0.496,0.318-0.783v-8.681h15.743
		c1.069,0,2.035-0.201,2.901-0.439c0.649-0.18,1.243-0.479,1.769-0.817c0.79-0.506,1.445-1.237,1.842-2.081
		c0.398-0.846,0.604-1.831,0.604-2.88v-5.669c0-0.981-0.157-1.868-0.452-2.658C55.379,29.249,54.879,28.56,54.244,28.048z
		 M47.951,37.297c-0.031,0.067-0.03,0.113-0.084,0.164c-0.079,0.073-0.203,0.28-0.459,0.352c-0.256,0.073-0.6,0.237-1.057,0.237
		H33.263v-4.898h13.089c0.406,0,0.736,0.082,0.984,0.143c0.186,0.044,0.324,0.123,0.42,0.176c0.145,0.085,0.129,0.16,0.18,0.248
		c0.047,0.088,0.023,0.238,0.023,0.484v2.654C47.958,37.074,47.991,37.21,47.951,37.297z"/>
</g>
</svg>
