<?xml version="1.0" encoding="utf-8"?>
<svg version="1.1" id="Layer_1" xmlns="http://www.w3.org/2000/svg" xmlns:xlink="http://www.w3.org/1999/xlink" x="0px" y="0px"
	 viewBox="0 0 148.824 148.824" enable-background="new 0 0 148.824 148.824"
	 xml:space="preserve">
<g>
	<circle fill="#B2217B" cx="74.422" cy="14.786" r="14.785"/>
	<path fill="#842723" d="M131.375,32.268c0,8.165-6.619,14.783-14.786,14.783c-8.165,0-14.784-6.618-14.784-14.783
		c0-8.168,6.619-14.786,14.784-14.786C124.756,17.481,131.375,24.1,131.375,32.268z"/>
	<path fill="#C41C5E" d="M47.037,32.254c0,8.165-6.619,14.783-14.786,14.783c-8.165,0-14.784-6.618-14.784-14.783
		c0-8.168,6.619-14.786,14.784-14.786C40.418,17.468,47.037,24.086,47.037,32.254z"/>
	<path fill="#7F5CA3" d="M29.569,74.424c0,8.165-6.619,14.783-14.786,14.783C6.618,89.207,0,82.589,0,74.424
		c0-8.168,6.618-14.786,14.783-14.786C22.95,59.638,29.569,66.256,29.569,74.424z"/>
	<circle fill="#702F6B" cx="32.293" cy="116.592" r="14.785"/>
	<circle fill="#006FA1" cx="74.422" cy="134.059" r="14.785"/>
	<circle fill="#2B877F" cx="116.59" cy="116.592" r="14.785"/>
	<path fill="#999999" d="M148.824,74.422c0,8.165-6.619,14.783-14.785,14.783s-14.784-6.618-14.784-14.783
		c0-8.168,6.618-14.786,14.784-14.786S148.824,66.254,148.824,74.422z"/>
	<path d="M99.664,51.533l-0.002-0.002c-1.152-0.928-2.561-1.594-4.163-1.998c-1.605-0.402-3.419-0.623-5.46-0.623H47.816
		c-0.527,0-0.893,0.25-1.265,0.623c-0.372,0.371-0.437,0.922-0.437,1.449v46.877c0,0.527,0.064,1.068,0.437,1.439
		c0.372,0.373,0.737,0.611,1.265,0.611h11.303c0.526,0,1.04-0.238,1.412-0.611c0.373-0.371,0.584-0.912,0.584-1.439V81.91h28.924
		c1.966,0,3.74-0.369,5.332-0.807c1.192-0.33,2.283-0.881,3.25-1.502c1.451-0.93,2.654-2.273,3.383-3.824
		c0.732-1.553,1.111-3.363,1.111-5.291V60.07c0-1.803-0.29-3.432-0.83-4.883C101.75,53.74,100.83,52.473,99.664,51.533z
		 M88.102,68.527c-0.058,0.123-0.055,0.207-0.153,0.301c-0.146,0.135-0.374,0.514-0.845,0.646c-0.469,0.135-1.101,0.436-1.941,0.436
		H61.115v-9h24.047c0.747,0,1.355,0.15,1.811,0.262c0.341,0.082,0.594,0.225,0.77,0.324c0.266,0.156,0.238,0.293,0.33,0.455
		c0.088,0.162,0.043,0.438,0.043,0.889v4.877C88.115,68.117,88.176,68.367,88.102,68.527z"/>
</g>
</svg>
