<?xml version="1.0" encoding="utf-8"?>
<!-- Generator: Adobe Illustrator 15.1.0, SVG Export Plug-In . SVG Version: 6.00 Build 0)  -->
<!DOCTYPE svg PUBLIC "-//W3C//DTD SVG 1.1//EN" "http://www.w3.org/Graphics/SVG/1.1/DTD/svg11.dtd">
<svg version="1.1" id="Layer_1" xmlns="http://www.w3.org/2000/svg" xmlns:xlink="http://www.w3.org/1999/xlink" x="0px" y="0px"
	 width="30px" height="30px" viewBox="0 0 30 30" enable-background="new 0 0 30 30" xml:space="preserve">
<g id="calendar_1_">
	<path fill="#333332" d="M27.771,5.766h-0.187v1.671h0.187c0.307,0,0.557,0.25,0.557,0.557v19.777c0,0.308-0.25,0.558-0.557,0.558
		H5.48c-0.308,0-0.558-0.25-0.558-0.558v-0.195H3.251v0.195C3.251,29.003,4.249,30,5.48,30h22.291C29.003,30,30,29.003,30,27.771
		V7.994C30,6.763,29.003,5.766,27.771,5.766z"/>
	<path fill="#333332" d="M24.521,2.507h-3.622V0.835C20.898,0.374,20.524,0,20.062,0c-0.463,0-0.836,0.374-0.836,0.835v1.671H14.21
		V0.835C14.21,0.374,13.836,0,13.375,0c-0.461,0-0.836,0.374-0.836,0.835v1.671H7.523V0.835C7.523,0.374,7.148,0,6.688,0
		C6.226,0,5.852,0.374,5.852,0.835v1.671H2.229C0.998,2.507,0,3.504,0,4.735v19.777c0,1.231,0.998,2.229,2.229,2.229h22.291
		c1.231,0,2.229-0.997,2.229-2.229V4.735C26.749,3.504,25.752,2.507,24.521,2.507z M25.077,24.512c0,0.309-0.249,0.558-0.557,0.558
		H2.229c-0.308,0-0.558-0.249-0.558-0.558V4.735c0-0.307,0.25-0.557,0.558-0.557h3.622V5.85c0,0.462,0.375,0.836,0.836,0.836
		c0.461,0,0.836-0.374,0.836-0.836V4.178h5.015V5.85c0,0.462,0.375,0.836,0.836,0.836c0.461,0,0.836-0.374,0.836-0.836V4.178h5.016
		V5.85c0,0.462,0.373,0.836,0.836,0.836c0.462,0,0.836-0.374,0.836-0.836V4.178h3.622c0.308,0,0.557,0.25,0.557,0.557V24.512z"/>
	<rect x="5.852" y="10.028" fill="#333332" width="3.344" height="2.507"/>
	<rect x="5.852" y="14.206" fill="#333332" width="3.344" height="2.507"/>
	<rect x="5.852" y="18.385" fill="#333332" width="3.344" height="2.507"/>
	<rect x="11.703" y="18.385" fill="#333332" width="3.344" height="2.507"/>
	<rect x="11.703" y="14.206" fill="#333332" width="3.344" height="2.507"/>
	<rect x="11.703" y="10.028" fill="#333332" width="3.344" height="2.507"/>
	<rect x="17.555" y="18.385" fill="#333332" width="3.344" height="2.507"/>
	<rect x="17.555" y="14.206" fill="#333332" width="3.344" height="2.507"/>
	<rect x="17.555" y="10.028" fill="#333332" width="3.344" height="2.507"/>
</g>
</svg>
