<?xml version="1.0" encoding="utf-8"?>
<!-- Generator: Adobe Illustrator 15.1.0, SVG Export Plug-In . SVG Version: 6.00 Build 0)  -->
<!DOCTYPE svg PUBLIC "-//W3C//DTD SVG 1.1//EN" "http://www.w3.org/Graphics/SVG/1.1/DTD/svg11.dtd">
<svg version="1.1" id="Layer_1" xmlns="http://www.w3.org/2000/svg" xmlns:xlink="http://www.w3.org/1999/xlink" x="0px" y="0px"
	 width="55px" height="55.07px" viewBox="0 0 55 55.07" enable-background="new 0 0 55 55.07" xml:space="preserve">
<g opacity="0.5">
	<circle opacity="0.25" cx="27.504" cy="5.465" r="5.464"/>
	<path opacity="0.25" d="M48.552,11.926c0,3.018-2.446,5.463-5.465,5.463c-3.017,0-5.463-2.446-5.463-5.463
		c0-3.019,2.446-5.464,5.463-5.464C46.105,6.461,48.552,8.907,48.552,11.926z"/>
	<path opacity="0.25" d="M17.383,11.92c0,3.018-2.446,5.463-5.464,5.463c-3.018,0-5.464-2.446-5.464-5.463
		c0-3.019,2.446-5.464,5.464-5.464C14.937,6.456,17.383,8.902,17.383,11.92z"/>
	<path opacity="0.25" d="M10.928,27.505c0,3.018-2.446,5.463-5.465,5.463C2.446,32.968,0,30.522,0,27.505
		c0-3.019,2.446-5.464,5.463-5.464C8.481,22.041,10.928,24.486,10.928,27.505z"/>
	<circle opacity="0.25" cx="11.934" cy="43.089" r="5.464"/>
	<circle opacity="0.25" cx="27.504" cy="49.544" r="5.464"/>
	<circle opacity="0.25" cx="43.087" cy="43.089" r="5.464"/>
	<path opacity="0.25" d="M55,27.504c0,3.018-2.446,5.463-5.464,5.463c-3.018,0-5.464-2.445-5.464-5.463
		c0-3.019,2.446-5.465,5.464-5.465C52.554,22.04,55,24.485,55,27.504z"/>
</g>
</svg>
