<?xml version="1.0" encoding="utf-8"?>
<!DOCTYPE svg PUBLIC "-//W3C//DTD SVG 1.1//EN" "http://www.w3.org/Graphics/SVG/1.1/DTD/svg11.dtd">
<svg version="1.1" id="Layer_1" xmlns="http://www.w3.org/2000/svg" xmlns:xlink="http://www.w3.org/1999/xlink" x="0px" y="0px"
	 width="57px" height="51px" viewBox="0 0 57 51" enable-background="new 0 0 57 51" xml:space="preserve">
<path opacity="0.5" fill="#FFFFFF" d="M53.549,2.623l-0.002-0.002c-1.152-0.928-2.561-1.594-4.163-1.998
	C47.777,0.221,45.965,0,43.924,0H1.7C1.174,0,0.809,0.25,0.437,0.622C0.063,0.994,0,1.545,0,2.072v46.877
	c0,0.527,0.063,1.066,0.437,1.439C0.809,50.762,1.174,51,1.7,51h11.303c0.527,0,1.041-0.238,1.413-0.611
	C14.788,50.018,15,49.477,15,48.949V33h28.924c1.967,0,3.74-0.369,5.332-0.809c1.192-0.328,2.283-0.879,3.25-1.502
	c1.451-0.929,2.654-2.271,3.383-3.823C56.621,25.314,57,23.504,57,21.576V11.16c0-1.803-0.29-3.432-0.83-4.883
	C55.635,4.83,54.715,3.563,53.549,2.623z M41.986,19.617c-0.059,0.123-0.055,0.207-0.153,0.301
	c-0.146,0.135-0.374,0.513-0.845,0.646C40.52,20.698,39.889,21,39.047,21H15v-9h24.047c0.747,0,1.355,0.15,1.811,0.261
	c0.342,0.082,0.595,0.226,0.771,0.325c0.267,0.155,0.238,0.293,0.33,0.454C42.045,13.202,42,13.479,42,13.93v4.877
	C42,19.207,42.061,19.456,41.986,19.617z"/>
</svg>
