<?xml version="1.0" encoding="utf-8"?>
<!-- Generator: Adobe Illustrator 15.1.0, SVG Export Plug-In . SVG Version: 6.00 Build 0)  -->
<!DOCTYPE svg PUBLIC "-//W3C//DTD SVG 1.1//EN" "http://www.w3.org/Graphics/SVG/1.1/DTD/svg11.dtd">
<svg version="1.1" id="Layer_1" xmlns="http://www.w3.org/2000/svg" xmlns:xlink="http://www.w3.org/1999/xlink" x="0px" y="0px"
	 width="148.844px" height="148.843px" viewBox="0 0 148.844 148.843" enable-background="new 0 0 148.844 148.843"
	 xml:space="preserve">
<g>
	<circle cx="74.4" cy="14.8" r="14.8"/>
	<path d="M131.375,32.268c0,8.165-6.619,14.783-14.786,14.783c-8.165,0-14.784-6.618-14.784-14.783
		c0-8.168,6.619-14.786,14.784-14.786C124.756,17.5,131.4,24.1,131.4,32.268H131.375z"/>
	<path d="M47.037,32.254c0,8.165-6.619,14.783-14.786,14.783c-8.165,0-14.784-6.618-14.784-14.783
		c0-8.168,6.619-14.786,14.784-14.786C40.418,17.5,47,24.1,47,32.254H47.037z"/>
	<path d="M29.569,74.424c0,8.166-6.619,14.783-14.786,14.783C6.618,89.201,0,82.6,0,74.424c0-8.168,6.618-14.786,14.783-14.786
		C22.95,59.6,29.6,66.3,29.6,74.424H29.569z"/>
	<circle cx="32.3" cy="116.6" r="14.8"/>
	<circle cx="74.4" cy="134.1" r="14.8"/>
	<circle cx="116.6" cy="116.6" r="14.8"/>
	<path d="M148.824,74.422c0,8.166-6.619,14.783-14.785,14.783s-14.784-6.617-14.784-14.783c0-8.168,6.618-14.786,14.784-14.786
		S148.824,66.3,148.8,74.422H148.824z"/>
	<path d="M99.664,51.525l-0.002-0.002c-1.152-0.928-2.561-1.594-4.163-1.998c-1.604-0.402-3.419-0.623-5.46-0.623H47.816
		c-0.527,0-0.893,0.25-1.265,0.623c-0.372,0.371-0.437,0.922-0.437,1.449v46.877c0,0.5,0.1,1.1,0.4,1.4
		c0.372,0.399,0.7,0.6,1.3,0.61h11.303c0.526,0,1.04-0.237,1.412-0.61c0.373-0.371,0.584-0.912,0.584-1.439v-15.91h28.924
		c1.966,0,3.74-0.369,5.332-0.807c1.191-0.33,2.283-0.881,3.25-1.502c1.451-0.93,2.654-2.273,3.383-3.824
		c0.732-1.553,1.111-3.364,1.111-5.292V60.062c0-1.803-0.29-3.432-0.83-4.883C101.75,53.7,100.8,52.5,99.7,51.525H99.664z
		 M88.102,68.519c-0.058,0.123-0.055,0.207-0.152,0.301c-0.146,0.135-0.374,0.514-0.846,0.646c-0.469,0.135-1.101,0.436-1.94,0.4
		H61.115v-9h24.047c0.747,0,1.4,0.1,1.8,0.262c0.341,0.1,0.601,0.2,0.8,0.324c0.266,0.2,0.2,0.3,0.301,0.5c0.088,0.2,0,0.4,0,0.889
		v4.877C88.115,68.1,88.2,68.4,88.1,68.519H88.102z"/>
</g>
</svg>
