<?xml version="1.0" encoding="utf-8"?>
<!-- Generator: Adobe Illustrator 15.1.0, SVG Export Plug-In . SVG Version: 6.00 Build 0)  -->
<!DOCTYPE svg PUBLIC "-//W3C//DTD SVG 1.1//EN" "http://www.w3.org/Graphics/SVG/1.1/DTD/svg11.dtd">
<svg version="1.1" id="Layer_1" xmlns="http://www.w3.org/2000/svg" xmlns:xlink="http://www.w3.org/1999/xlink" x="0px" y="0px"
	 width="713.117px" height="148.843px" viewBox="0 0 713.117 148.843" enable-background="new 0 0 713.117 148.843"
	 xml:space="preserve">
<g>
	<g>
		<path fill="#FFFFFF" d="M711.38,49.36h-4c-0.004,0-0.01,0.002-0.016,0.002c-0.517-0.005-1.035,0.189-1.431,0.584l-25.188,25.188
			l-25.189-25.188c-0.395-0.395-0.909-0.589-1.43-0.584c-0.006,0-0.01-0.002-0.016-0.002h-4c-1.104,0-2,0.896-2,2v47
			c0,1.101,0.899,2,2,2h4c1.104,0,2-0.896,2-2V61.813l22.961,22.961l0.02-0.005c0.396,0.4,1,0.699,1.603,0.688
			c0.619,0,1.174-0.262,1.565-0.677l0.021,0.005l22.854-22.972V98.36c0,1.101,1.201,2,2.302,2h4c1.104,0,1.733-0.896,1.733-2v-47
			c-0.059-1.06-0.674-1.96-1.772-2H711.38z"/>
		<path fill="#FFFFFF" d="M628.705,49.36h-34.51c-5.605,0-10.08,4.71-10.08,10.314v30.451c0,5.601,4.5,10.199,10.1,10.234h34.51
			c5.605,0,10.41-4.629,10.41-10.234V59.674C639.115,54.1,634.3,49.4,628.701,49.36H628.705z M631.115,90.1
			c0,1.122-1.289,2.235-2.41,2.235h-34.51c-1.121,0-2.08-1.113-2.08-2.235V59.65c0-1.12,0.959-2.314,2.08-2.314h34.51
			c1.121,0,2.4,1.2,2.4,2.314v30.475L631.115,90.1z"/>
		<path fill="#FFFFFF" d="M567.115,84.36v6.271c0,1.123-0.742,1.729-1.863,1.729h-34.51c-1.121,0-2.627-0.606-2.627-1.729V60.181
			c0-1.119,1.506-2.821,2.627-2.821h34.51c1.121,0,1.9,1.7,1.9,2.821v5.179h8v-5.179c0-5.604-4.258-10.821-9.863-10.821h-34.51
			c-5.605,0-10.627,5.218-10.627,10.821V90.63c0,5.601,5,9.701,10.6,9.729h34.51c5.605,0,9.863-4.122,9.863-9.729V84.36H567.115z"/>
	</g>
	<g>
		<g>
			<path fill="#FFFFFF" d="M478.511,97.276L450.25,50.364c-0.361-0.602-1.012-1.004-1.713-1.004h-10.971
				c-0.707,0-1.357,0.406-1.72,1l-27.817,46.896c-0.369,0.619-0.375,1.418-0.021,2.045c0.357,0.601,1,1,1.699,1.046h11.416
				c0.721,0,1.381-0.229,1.738-0.856l5.299-9.144h28.703l5.301,9.144c0.355,0.602,1,0.9,1.701,0.856h12.854
				c0.724,0,1.39-0.414,1.742-1.044c0.43-0.602,0.437-1.401,0.035-2.025L478.511,97.276L478.511,97.276z M435.265,77.36L442.476,64
				l7.521,13.36H435.265z"/>
			<path fill="#FFFFFF" d="M395.898,49.36h-10.308c-0.522,0-1.276,0.25-1.649,0.622s-0.824,0.923-0.824,1.45v27.034L346.804,49.82
				c-0.352-0.273-0.55-0.461-0.995-0.461h-7.865c-0.526,0-0.954,0.25-1.327,0.622c-0.372,0.372-0.498,0.923-0.498,1.45V98.31
				c0,0.5,0.1,1.1,0.5,1.439c0.373,0.398,0.8,0.6,1.3,0.609h10.418c0.526,0,0.921-0.236,1.292-0.609
				c0.373-0.373,0.465-0.912,0.465-1.439V70.874l36.546,29.025c0.355,0.3,0.9,0.5,1.4,0.461h7.867c0.524,0,1.149-0.237,1.521-0.61
				c0.373-0.373,0.695-0.912,0.695-1.438V51.433c0-0.527-0.322-1.078-0.695-1.45C397.048,49.6,396.4,49.4,395.9,49.36H395.898z"/>
			<path fill="#FFFFFF" d="M314.854,56.001c-2.643-2.235-5.854-3.92-9.568-5c-3.717-1.082-7.938-1.641-12.667-1.641h-31.584
				c-0.526,0-1.001,0.25-1.372,0.622c-0.373,0.372-0.545,0.923-0.545,1.45V98.31c0,0.5,0.2,1.1,0.5,1.4
				c0.371,0.398,0.8,0.6,1.4,0.609h28.701c5.298,0,9.983-0.525,14.067-1.562c3.062-0.774,5.79-1.866,8.164-3.271
				c3.562-2.103,6.316-4.969,8.125-8.489c1.812-3.521,2.678-7.66,2.677-12.33c0.001-3.908-0.637-7.462-1.957-10.609
				c-1.3-3.06-3.293-5.86-5.893-8.059L314.854,56.001L314.854,56.001z M305.83,80.78c-0.771,1.728-1.845,3.017-3.332,4
				c-1.324,0.845-3.257,1.464-5.796,1.943c-2.547,0.485-5.691,0.644-9.405,0.644h-13.181v-26h18.61c2.569,0,4.8,0.5,6.6,1.1
				c1.354,0.4,2.5,1.1,3.398,1.698c1.424,1,2.4,2.3,3.2,3.873c0.718,1.6,1.102,3.7,1.102,6.1C307.019,76.8,306.6,79.1,305.8,80.78
				H305.83z"/>
			<path fill="#FFFFFF" d="M230.521,82.36h0.702c1.965,0,3.737-0.09,5.327-0.522c1.191-0.323,2.281-0.729,3.247-1.344
				c1.45-0.918,2.564-2.179,3.295-3.718c0.735-1.539,1.024-3.266,1.024-5.174V60.521c0-1.714-0.219-3.299-0.791-4.723
				c-0.428-1.066-1.018-2.035-1.792-2.859c-1.163-1.24-2.665-2.166-4.399-2.726c-1.739-0.562-3.699-0.853-5.911-0.853h-42.221
				c-0.526,0-0.985,0.25-1.356,0.622c-0.373,0.372-0.529,0.923-0.529,1.45V98.31c0,0.5,0.2,1.1,0.5,1.4
				c0.371,0.398,0.8,0.6,1.4,0.609h11.303c0.526,0,0.948-0.236,1.319-0.609c0.373-0.373,0.492-0.912,0.492-1.439V82.36h8.168
				l19.043,17.349c0.367,0.301,0.8,0.701,1.3,0.651h16.403c0.852,0,1.607-0.562,1.889-1.364c0.28-0.806,0.023-1.815-0.643-2.349
				L230.521,82.36z M229.194,69.532c-0.058,0.123-0.009,0.207-0.107,0.301c-0.146,0.135-0.35,0.235-0.822,0.4
				c-0.467,0.134-1.076,0.158-1.917,0.158h-24.231v-9h24.231c0.747,0,1.4,0.1,1.8,0.261c0.341,0.1,0.6,0.2,0.8,0.3
				c0.267,0.2,0.1,0.3,0.2,0.454c0.088,0.162-0.049,0.438-0.049,0.89v5.432c0.017,0.372,0.201,0.672,0.101,0.804H229.194z"/>
			<path fill="#FFFFFF" d="M150.818,50.364c-0.362-0.602-1.011-1.004-1.713-1.004h-10.97c-0.708,0-1.358,0.406-1.72,1.016
				l-27.817,46.9c-0.368,0.621-0.375,1.419-0.018,2.045c0.355,0.601,1,1,1.7,1.046h11.416c0.722,0,1.381-0.229,1.737-0.857
				l5.297-9.143h28.706l5.298,9.143c0.356,0.602,1,0.9,1.7,0.857h12.857c0.721,0,1.387-0.414,1.741-1.043
				c0.355-0.628,0.344-1.429-0.028-2.047L150.818,50.364z M135.835,77.36l7.212-13.361l7.517,13.361H135.835z"/>
			<path fill="#FFFFFF" d="M99.665,51.983l-0.001-0.002c-1.152-0.928-2.561-1.594-4.164-1.998c-1.605-0.402-3.418-0.623-5.46-0.623
				H47.816c-0.527,0-0.892,0.25-1.264,0.622c-0.373,0.372-0.436,0.923-0.436,1.45V98.31c0,0.5,0.1,1.1,0.4,1.4
				c0.372,0.398,0.7,0.6,1.3,0.609h11.303c0.527,0,1.041-0.236,1.413-0.609c0.373-0.373,0.584-0.912,0.584-1.439V82.36h28.923
				c1.966,0,3.74-0.368,5.332-0.808c1.193-0.329,2.284-0.881,3.251-1.502c1.451-0.93,2.654-2.272,3.382-3.824
				c0.732-1.552,1.112-3.362,1.112-5.29V60.521c0-1.803-0.291-3.432-0.831-4.883C101.75,54.2,100.8,52.9,99.7,51.983H99.665z
				 M88.102,68.978c-0.058,0.123-0.055,0.207-0.153,0.301c-0.146,0.135-0.374,0.513-0.845,0.646c-0.468,0.134-1.1,0.436-1.941,0.4
				H61.116v-9h24.046c0.748,0,1.4,0.1,1.8,0.261c0.341,0.1,0.6,0.2,0.8,0.325c0.266,0.2,0.2,0.3,0.3,0.5c0.087,0.2,0,0.4,0,0.89
				v4.877c0.054,0.422,0.138,0.622,0.038,0.8H88.102L88.102,68.978z"/>
		</g>
	</g>
	<g>
		<circle fill="#FFFFFF" cx="74.4" cy="14.8" r="14.8"/>
		<circle fill="#FFFFFF" cx="116.6" cy="32.3" r="14.8"/>
		<circle fill="#FFFFFF" cx="32.3" cy="32.3" r="14.8"/>
		<circle fill="#FFFFFF" cx="14.8" cy="74.4" r="14.8"/>
		<circle fill="#FFFFFF" cx="32.3" cy="116.6" r="14.8"/>
		<circle fill="#FFFFFF" cx="74.4" cy="134.1" r="14.8"/>
		<circle fill="#FFFFFF" cx="116.6" cy="116.6" r="14.8"/>
		<circle fill="#FFFFFF" cx="497.9" cy="85.1" r="14.8"/>
		<circle display="none" fill="#FFFFFF" cx="134" cy="74.4" r="14.8"/>
	</g>
</g>
</svg>
