<?xml version="1.0" encoding="utf-8"?>
<!-- Generator: Adobe Illustrator 15.1.0, SVG Export Plug-In . SVG Version: 6.00 Build 0)  -->
<!DOCTYPE svg PUBLIC "-//W3C//DTD SVG 1.1//EN" "http://www.w3.org/Graphics/SVG/1.1/DTD/svg11.dtd">
<svg version="1.1" id="Layer_1" xmlns="http://www.w3.org/2000/svg" xmlns:xlink="http://www.w3.org/1999/xlink" x="0px" y="0px"
	 width="432.675px" height="51.012px" viewBox="0 0 432.675 51.012" enable-background="new 0 0 432.675 51.012"
	 xml:space="preserve">
<g>
	<g>
		<g>
			<path fill="#FFFFFF" d="M432.395,47.917L404.135,1.005c-0.361-0.602-1.013-1.004-1.714-1.004H391.45c-0.707,0-1.356,0.406-1.72,1
				l-27.817,46.896c-0.369,0.619-0.375,1.418-0.021,2.045c0.356,0.602,1,1,1.698,1.047h11.416c0.722,0,1.382-0.229,1.738-0.855
				l5.299-9.145h28.703l5.301,9.145c0.355,0.602,1,0.899,1.701,0.855h12.854c0.724,0,1.39-0.414,1.742-1.045
				c0.43-0.602,0.437-1.4,0.034-2.024L432.395,47.917L432.395,47.917z M389.149,28.001l7.211-13.36l7.521,13.36H389.149z"/>
			<path fill="#FFFFFF" d="M349.782,0.001h-10.308c-0.522,0-1.276,0.25-1.649,0.622s-0.824,0.923-0.824,1.45v27.034L300.688,0.461
				C300.336,0.188,300.138,0,299.693,0h-7.865c-0.525,0-0.954,0.25-1.327,0.622c-0.372,0.372-0.498,0.923-0.498,1.45v46.879
				c0,0.5,0.101,1.1,0.5,1.439c0.373,0.397,0.801,0.6,1.301,0.608h10.418c0.525,0,0.921-0.235,1.292-0.608
				c0.373-0.373,0.465-0.912,0.465-1.439V21.515l36.546,29.025c0.354,0.3,0.899,0.5,1.399,0.461h7.867
				c0.524,0,1.149-0.237,1.521-0.61c0.373-0.373,0.694-0.912,0.694-1.438V2.074c0-0.527-0.321-1.078-0.694-1.45
				c-0.38-0.383-1.028-0.583-1.528-0.623H349.782z"/>
			<path fill="#FFFFFF" d="M268.738,6.642c-2.643-2.235-5.854-3.92-9.568-5c-3.717-1.082-7.938-1.641-12.667-1.641h-31.584
				c-0.525,0-1.001,0.25-1.372,0.622c-0.373,0.372-0.545,0.923-0.545,1.45v46.878c0,0.5,0.2,1.1,0.5,1.4
				c0.371,0.397,0.8,0.6,1.4,0.608h28.701c5.298,0,9.982-0.524,14.066-1.562c3.062-0.774,5.79-1.866,8.164-3.271
				c3.562-2.104,6.316-4.969,8.125-8.488c1.812-3.521,2.679-7.66,2.678-12.331c0.001-3.908-0.638-7.462-1.957-10.609
				c-1.301-3.06-3.293-5.86-5.894-8.059L268.738,6.642L268.738,6.642z M259.714,31.422c-0.771,1.727-1.845,3.016-3.332,4
				c-1.323,0.844-3.257,1.463-5.796,1.942c-2.547,0.485-5.69,0.644-9.405,0.644H228v-26h18.61c2.568,0,4.8,0.5,6.6,1.1
				c1.354,0.4,2.5,1.1,3.398,1.698c1.424,1,2.399,2.3,3.2,3.873c0.718,1.6,1.102,3.7,1.102,6.1
				c-0.007,2.662-0.426,4.962-1.226,6.643H259.714z"/>
			<path fill="#FFFFFF" d="M184.405,33.001h0.702c1.965,0,3.736-0.09,5.326-0.522c1.191-0.322,2.281-0.729,3.247-1.344
				c1.45-0.918,2.564-2.179,3.295-3.718c0.735-1.539,1.024-3.266,1.024-5.174V11.162c0-1.714-0.219-3.299-0.791-4.723
				c-0.428-1.066-1.018-2.035-1.792-2.859c-1.163-1.24-2.665-2.166-4.399-2.726c-1.738-0.562-3.698-0.853-5.91-0.853h-42.222
				c-0.525,0-0.984,0.25-1.355,0.622c-0.373,0.372-0.529,0.923-0.529,1.45v46.878c0,0.5,0.2,1.1,0.5,1.4
				c0.371,0.397,0.8,0.6,1.4,0.608h11.303c0.526,0,0.948-0.235,1.319-0.608c0.373-0.373,0.491-0.912,0.491-1.439V33.001h8.168
				l19.043,17.349c0.367,0.301,0.801,0.701,1.301,0.651h16.402c0.853,0,1.607-0.562,1.89-1.364c0.279-0.806,0.022-1.814-0.644-2.349
				L184.405,33.001z M183.078,20.173c-0.058,0.123-0.009,0.207-0.107,0.301c-0.146,0.135-0.35,0.235-0.821,0.4
				c-0.468,0.134-1.076,0.158-1.917,0.158h-24.231v-9h24.231c0.747,0,1.399,0.1,1.8,0.261c0.341,0.1,0.6,0.2,0.8,0.3
				c0.267,0.2,0.1,0.3,0.2,0.454c0.088,0.162-0.049,0.438-0.049,0.89v5.432c0.017,0.372,0.2,0.672,0.101,0.804H183.078z"/>
			<path fill="#FFFFFF" d="M104.702,1.005c-0.362-0.602-1.011-1.004-1.713-1.004H92.018c-0.707,0-1.357,0.406-1.72,1.016
				l-27.816,46.9c-0.368,0.621-0.375,1.419-0.019,2.045c0.355,0.601,1,1,1.7,1.046H75.58c0.722,0,1.381-0.229,1.737-0.857
				l5.297-9.143h28.706l5.298,9.143c0.355,0.603,1,0.9,1.7,0.857h12.856c0.722,0,1.388-0.414,1.741-1.043
				c0.355-0.628,0.344-1.429-0.028-2.047L104.702,1.005z M89.719,28.001L96.93,14.64l7.518,13.361H89.719z"/>
			<path fill="#FFFFFF" d="M53.549,2.624l-0.001-0.002c-1.151-0.928-2.561-1.594-4.164-1.998c-1.604-0.402-3.418-0.623-5.46-0.623
				H1.7c-0.527,0-0.893,0.25-1.264,0.622C0.063,0.995,0,1.546,0,2.073v46.878c0,0.5,0.1,1.1,0.4,1.4
				c0.372,0.397,0.699,0.6,1.3,0.608h11.303c0.527,0,1.041-0.235,1.413-0.608C14.789,49.979,15,49.439,15,48.912V33.001h28.923
				c1.966,0,3.74-0.368,5.332-0.808c1.193-0.329,2.284-0.881,3.251-1.502c1.451-0.93,2.654-2.272,3.382-3.824
				C56.62,25.315,57,23.505,57,21.577V11.162c0-1.803-0.291-3.432-0.831-4.883c-0.535-1.438-1.485-2.738-2.585-3.655H53.549z
				 M41.986,19.619c-0.059,0.123-0.056,0.207-0.153,0.301c-0.146,0.135-0.374,0.513-0.845,0.646c-0.468,0.134-1.101,0.436-1.941,0.4
				H15v-9h24.046c0.748,0,1.4,0.1,1.8,0.261c0.342,0.1,0.601,0.2,0.801,0.325c0.266,0.2,0.199,0.3,0.3,0.5c0.087,0.2,0,0.4,0,0.89
				v4.877c0.054,0.422,0.138,0.622,0.038,0.8H41.986L41.986,19.619z"/>
		</g>
	</g>
	<g>
		<circle display="none" fill="#231F20" cx="87.884" cy="74.4" r="14.8"/>
	</g>
</g>
</svg>
