<?xml version="1.0" encoding="utf-8"?>
<!-- Generator: Adobe Illustrator 15.1.0, SVG Export Plug-In . SVG Version: 6.00 Build 0)  -->
<!DOCTYPE svg PUBLIC "-//W3C//DTD SVG 1.1//EN" "http://www.w3.org/Graphics/SVG/1.1/DTD/svg11.dtd">
<svg version="1.1" id="Layer_1" xmlns="http://www.w3.org/2000/svg" xmlns:xlink="http://www.w3.org/1999/xlink" x="0px" y="0px"
	 width="24px" height="24px" viewBox="0 0 24 24" enable-background="new 0 0 24 24" xml:space="preserve">
<path fill="#FFFFFF" d="M12,0C5.373,0,0,5.373,0,12s5.373,12,12,12s12-5.373,12-12S18.627,0,12,0z M15.484,5.901
	c1.447,0,2.605,1.167,2.605,2.614s-1.158,2.614-2.605,2.614c-1.445,0-2.613-1.167-2.613-2.614S14.039,5.901,15.484,5.901z
	 M8.515,5.901c1.446,0,2.605,1.167,2.605,2.614s-1.159,2.614-2.605,2.614S5.902,9.961,5.902,8.515S7.069,5.901,8.515,5.901z
	 M14.613,18.099H2.417v-2.178c0-2.03,4.068-3.05,6.099-3.05s6.098,1.02,6.098,3.05V18.099z M16.355,18.099v-2.178
	c0-1.29-0.705-2.273-1.717-3.007c0.307-0.025,0.594-0.043,0.846-0.043c2.031,0,6.1,1.02,6.1,3.05v2.178H16.355z"/>
</svg>
