<?xml version="1.0" encoding="utf-8"?>
<!-- Generator: Adobe Illustrator 15.1.0, SVG Export Plug-In . SVG Version: 6.00 Build 0)  -->
<!DOCTYPE svg PUBLIC "-//W3C//DTD SVG 1.1//EN" "http://www.w3.org/Graphics/SVG/1.1/DTD/svg11.dtd">
<svg version="1.1" id="Layer_1" xmlns="http://www.w3.org/2000/svg" xmlns:xlink="http://www.w3.org/1999/xlink" x="0px" y="0px"
	 width="24px" height="24px" viewBox="0 0 24 24" enable-background="new 0 0 24 24" xml:space="preserve">
<path fill="none" d="M0,0h24v24H0V0z"/>
<path d="M10.872,18.063c0.504-0.63,0.89-1.346,1.095-2.155c0.14-0.559,0.184-1.117,0.185-1.666c-0.001-0.271-0.024-0.534-0.04-0.799
	h3.457v-2.147v-0.534h-3.766C11.689,10.099,11.6,9.428,11.6,8.554c-0.001-0.835,0.188-1.516,0.534-1.954
	c0.348-0.434,0.843-0.705,1.723-0.713c0.991,0,1.673,0.237,2.048,0.445l0.586,0.325l0.783-2.725L16.93,3.72
	C16.286,3.323,15.271,3.001,13.856,3c-1.543-0.002-2.921,0.541-3.902,1.521c-0.982,0.976-1.552,2.377-1.55,4.009
	c0,0.805,0.097,1.559,0.199,2.233H6.838H6.304v2.147v0.534H9c0.047,0.424,0.072,0.813,0.072,1.258
	c0.002,1.691-1.065,3.214-2.628,4.009l-0.292,0.148v1.607V21h11.697v-2.402v-0.534H10.872z"/>
</svg>
